<?xml version="1.0" encoding="UTF-8" standalone="no"?>
<svg width="20px" height="20px" viewBox="0 0 46 46" version="1.1" xmlns="http://www.w3.org/2000/svg" xmlns:xlink="http://www.w3.org/1999/xlink">
    <g id="Google-Button" stroke="none" stroke-width="1" fill="none" fill-rule="evenodd">
        <g id="Google-Logo" transform="translate(3.000000, 3.000000)">
            <path d="M40.5,20.25 C40.5,18.9375 40.375,17.6875 40.125,16.5 L20.5,16.5 L20.5,24.25 L31.875,24.25 C31.375,26.75 29.9375,28.8125 27.75,30.125 L27.75,35.125 L34.5,35.125 C38.4375,31.625 40.5,26.375 40.5,20.25 Z" id="Shape" fill="#4285F4"></path>
            <path d="M20.5,41 C26.125,41 30.8125,39.125 34.5,35.125 L27.75,30.125 C25.875,31.375 23.375,32.125 20.5,32.125 C15.1875,32.125 10.6875,28.5 9,23.75 L2,23.75 L2,28.875 C5.6875,36.125 12.5,41 20.5,41 Z" id="Shape" fill="#34A853"></path>
            <path d="M9,23.75 C8.5625,22.5 8.3125,21.1875 8.3125,19.75 C8.3125,18.3125 8.5625,17 9,15.75 L9,10.625 L2,10.625 C0.75,13.125 0,16.3125 0,19.75 C0,23.1875 0.75,26.375 2,28.875 L9,23.75 Z" id="Shape" fill="#FBBC05"></path>
            <path d="M20.5,7.375 C23.5625,7.375 26.25,8.375 28.375,10.375 L34.375,4.375 C30.8125,1.625 26.125,0 20.5,0 C12.5,0 5.6875,4.875 2,12.125 L9,17.25 C10.6875,12.5 15.1875,7.375 20.5,7.375 Z" id="Shape" fill="#EA4335"></path>
        </g>
    </g>
</svg>